<?xml version="1.0" encoding="UTF-8"?>
<svg id="Capa_2" data-name="Capa 2" xmlns="http://www.w3.org/2000/svg" viewBox="0 0 277.82 223.03">
  <defs>
    <style>
      .cls-1 {
        fill: #fff;
      }

      .cls-2 {
        font-family: PatuaOne-Regular, 'PatuaOne Regular';
        font-size: 90.38px;
      }

      .cls-2, .cls-3 {
        fill: #001e3e;
      }

      .cls-4, .cls-5 {
        fill: #aa3b48;
      }

      .cls-6 {
        fill: #7070d5;
      }

      .cls-5 {
        font-family: Poppins-Medium, Poppins;
        font-size: 20.83px;
        font-weight: 500;
        letter-spacing: .17em;
      }

      .cls-7 {
        letter-spacing: 0em;
      }
    </style>
  </defs>
  <g id="Capa_1-2" data-name="Capa 1">
    <text class="cls-5" transform="translate(113.23 210.78) rotate(1)"><tspan x="0" y="0">A</tspan><tspan x="18" y="-.3">P</tspan><tspan x="33.87" y="-.57">P</tspan></text>
    <text class="cls-2" transform="translate(25.14 179.28)"><tspan x="0" y="0">H</tspan><tspan class="cls-7" x="58.93" y="0">a</tspan><tspan x="102.13" y="0">tun</tspan></text>
    <g id="CUSTOM-group">
      <g>
        <circle class="cls-6" cx="144.17" cy="54.16" r="51.75" transform="translate(3.93 117.81) rotate(-45)"/>
        <circle class="cls-4" cx="144.17" cy="54.16" r="51.75" transform="translate(3.93 117.81) rotate(-45)"/>
      </g>
      <polygon class="cls-1" points="112.28 78.46 146.44 64.33 160.74 30.35 126.92 46.33 112.28 78.46"/>
      <g>
        <path class="cls-3" d="M175.28,16.02C164.94,5.69,151.21,0,136.59,0s-28.35,5.69-38.68,16.02c-10.33,10.33-16.02,24.07-16.02,38.68s5.69,28.35,16.02,38.68,24.07,16.02,38.68,16.02,28.35-5.69,38.68-16.02,16.02-24.07,16.02-38.68-5.69-28.35-16.02-38.68Zm-2.51,74.86c-9.66,9.66-22.51,14.98-36.18,14.98s-26.51-5.32-36.18-14.98c-9.66-9.66-14.98-22.51-14.98-36.18s5.32-26.51,14.98-36.18c9.66-9.66,22.51-14.98,36.18-14.98s26.51,5.32,36.18,14.98c9.66,9.66,14.98,22.51,14.98,36.18s-5.32,26.51-14.98,36.18Z"/>
        <path class="cls-3" d="M136.59,7.56c-25.99,0-47.14,21.15-47.14,47.14s21.15,47.14,47.14,47.14,47.14-21.15,47.14-47.14S162.59,7.56,136.59,7.56Zm1.77,90.7v-7.64c0-.98-.79-1.77-1.77-1.77s-1.77,.79-1.77,1.77v7.64c-22.63-.91-40.88-19.15-41.79-41.79h7.64c.98,0,1.77-.79,1.77-1.77s-.79-1.77-1.77-1.77h-7.64c.91-22.63,19.15-40.88,41.79-41.79v7.64c0,.98,.79,1.77,1.77,1.77s1.77-.79,1.77-1.77v-7.64c22.63,.91,40.88,19.15,41.79,41.79h-7.64c-.98,0-1.77,.79-1.77,1.77s.79,1.77,1.77,1.77h7.64c-.91,22.63-19.15,40.88-41.79,41.79Z"/>
        <path class="cls-3" d="M160.45,28.51l-34.03,15.12c-.4,.18-.72,.5-.9,.9l-15.12,34.03c-.3,.67-.15,1.45,.37,1.97,.34,.34,.79,.52,1.25,.52,.24,0,.49-.05,.72-.15l34.03-15.12c.4-.18,.72-.5,.9-.9l15.12-34.03c.3-.67,.15-1.45-.37-1.97-.52-.52-1.3-.66-1.97-.37h0Zm-32.74,19.82l2.52,2.52c-.68,1.13-1.08,2.45-1.08,3.86,0,4.1,3.34,7.44,7.44,7.44,1.41,0,2.73-.39,3.86-1.08l2.52,2.52-27.46,12.2,12.2-27.46Zm8.88,10.27c-2.15,0-3.9-1.75-3.9-3.9s1.75-3.9,3.9-3.9,3.9,1.75,3.9,3.9-1.75,3.9-3.9,3.9Zm8.88,2.48l-2.52-2.52c.68-1.13,1.08-2.45,1.08-3.86,0-4.1-3.34-7.44-7.44-7.44-1.41,0-2.73,.39-3.86,1.08l-2.52-2.52,27.46-12.2-12.2,27.46h0Z"/>
      </g>
    </g>
    <g id="CUSTOM-group-2" data-name="CUSTOM-group">
      <g id="CUSTOM-Group">
        <path class="cls-4" d="M53.45,96.55c-5.26,0-8.04-2.23-10.28-4.02-1.96-1.57-3.38-2.71-6.54-2.71s-4.57,1.14-6.54,2.71c-2.24,1.79-5.03,4.02-10.28,4.02s-8.04-2.23-10.28-4.02c-1.96-1.57-3.38-2.71-6.53-2.71-1.66,0-3-1.34-3-3s1.34-3,3-3c5.26,0,8.04,2.23,10.28,4.02,1.96,1.57,3.38,2.71,6.53,2.71s4.57-1.14,6.53-2.71c2.24-1.79,5.03-4.02,10.28-4.02s8.04,2.23,10.28,4.02c1.96,1.57,3.38,2.71,6.54,2.71s4.57-1.14,6.54-2.71c2.24-1.79,5.03-4.02,10.28-4.02,1.66,0,3,1.34,3,3s-1.34,3-3,3c-3.15,0-4.57,1.14-6.54,2.71-2.24,1.79-5.03,4.02-10.28,4.02Z"/>
      </g>
      <g id="CUSTOM-Group-2" data-name="CUSTOM-Group">
        <path class="cls-4" d="M258,96.55c-5.26,0-8.04-2.23-10.28-4.02-1.96-1.57-3.38-2.71-6.54-2.71s-4.57,1.14-6.54,2.71c-2.24,1.79-5.03,4.02-10.28,4.02s-8.04-2.23-10.28-4.02c-1.96-1.57-3.38-2.71-6.53-2.71-1.66,0-3-1.34-3-3s1.34-3,3-3c5.26,0,8.04,2.23,10.28,4.02,1.96,1.57,3.38,2.71,6.54,2.71s4.57-1.14,6.53-2.71c2.24-1.79,5.03-4.02,10.28-4.02s8.04,2.23,10.28,4.02c1.96,1.57,3.38,2.71,6.54,2.71s4.57-1.14,6.54-2.71c2.24-1.79,5.03-4.02,10.28-4.02,1.66,0,3,1.34,3,3s-1.34,3-3,3c-3.15,0-4.57,1.14-6.54,2.71-2.24,1.79-5.03,4.02-10.28,4.02Z"/>
      </g>
    </g>
  </g>
</svg>